<mxfile host="app.diagrams.net" modified="2020-10-09T08:12:25.992Z" agent="5.0 (Windows NT 10.0; Win64; x64) AppleWebKit/537.36 (KHTML, like Gecko) Chrome/85.0.4183.121 Safari/537.36 Edg/85.0.564.70" etag="BGvf14lQvXR9nA8drJiP" version="13.7.3" type="github">
  <diagram id="Nx0xhrnx1RTTKnKsoHmg" name="Page-1">
    <mxGraphModel dx="1493" dy="788" grid="1" gridSize="10" guides="1" tooltips="1" connect="1" arrows="1" fold="1" page="1" pageScale="1" pageWidth="827" pageHeight="1169" math="0" shadow="0">
      <root>
        <mxCell id="0" />
        <mxCell id="1" parent="0" />
        <mxCell id="nNlxoumCLB-s76sOJI21-1" value="" style="shape=umlLifeline;participant=umlActor;perimeter=lifelinePerimeter;whiteSpace=wrap;html=1;container=1;collapsible=0;recursiveResize=0;verticalAlign=top;spacingTop=36;outlineConnect=0;" vertex="1" parent="1">
          <mxGeometry x="40" y="40" width="20" height="560" as="geometry" />
        </mxCell>
        <mxCell id="nNlxoumCLB-s76sOJI21-10" value="" style="html=1;points=[];perimeter=orthogonalPerimeter;" vertex="1" parent="nNlxoumCLB-s76sOJI21-1">
          <mxGeometry x="5" y="60" width="10" height="480" as="geometry" />
        </mxCell>
        <mxCell id="nNlxoumCLB-s76sOJI21-2" value="ATS核心" style="shape=umlLifeline;perimeter=lifelinePerimeter;whiteSpace=wrap;html=1;container=1;collapsible=0;recursiveResize=0;outlineConnect=0;" vertex="1" parent="1">
          <mxGeometry x="120" y="40" width="100" height="560" as="geometry" />
        </mxCell>
        <mxCell id="nNlxoumCLB-s76sOJI21-7" value="" style="html=1;points=[];perimeter=orthogonalPerimeter;" vertex="1" parent="nNlxoumCLB-s76sOJI21-2">
          <mxGeometry x="45" y="80" width="10" height="40" as="geometry" />
        </mxCell>
        <mxCell id="nNlxoumCLB-s76sOJI21-3" value="ats-kernel-adapter" style="shape=umlLifeline;perimeter=lifelinePerimeter;whiteSpace=wrap;html=1;container=1;collapsible=0;recursiveResize=0;outlineConnect=0;" vertex="1" parent="1">
          <mxGeometry x="240" y="40" width="100" height="560" as="geometry" />
        </mxCell>
        <mxCell id="nNlxoumCLB-s76sOJI21-12" value="" style="html=1;points=[];perimeter=orthogonalPerimeter;" vertex="1" parent="nNlxoumCLB-s76sOJI21-3">
          <mxGeometry x="45" y="120" width="10" height="40" as="geometry" />
        </mxCell>
        <mxCell id="nNlxoumCLB-s76sOJI21-8" value="成交" style="html=1;verticalAlign=bottom;endArrow=block;entryX=0;entryY=0;" edge="1" target="nNlxoumCLB-s76sOJI21-7" parent="1" source="nNlxoumCLB-s76sOJI21-1">
          <mxGeometry relative="1" as="geometry">
            <mxPoint x="95" y="100" as="sourcePoint" />
          </mxGeometry>
        </mxCell>
        <mxCell id="nNlxoumCLB-s76sOJI21-13" value="" style="html=1;verticalAlign=bottom;endArrow=block;entryX=0;entryY=0;" edge="1" target="nNlxoumCLB-s76sOJI21-12" parent="1" source="nNlxoumCLB-s76sOJI21-2">
          <mxGeometry relative="1" as="geometry">
            <mxPoint x="215" y="140" as="sourcePoint" />
          </mxGeometry>
        </mxCell>
        <mxCell id="nNlxoumCLB-s76sOJI21-15" value="kafka" style="shape=umlLifeline;perimeter=lifelinePerimeter;whiteSpace=wrap;html=1;container=1;collapsible=0;recursiveResize=0;outlineConnect=0;" vertex="1" parent="1">
          <mxGeometry x="360" y="40" width="100" height="560" as="geometry" />
        </mxCell>
        <mxCell id="nNlxoumCLB-s76sOJI21-21" value="" style="html=1;points=[];perimeter=orthogonalPerimeter;" vertex="1" parent="nNlxoumCLB-s76sOJI21-15">
          <mxGeometry x="45" y="220" width="10" height="40" as="geometry" />
        </mxCell>
        <mxCell id="nNlxoumCLB-s76sOJI21-33" value="" style="html=1;points=[];perimeter=orthogonalPerimeter;" vertex="1" parent="nNlxoumCLB-s76sOJI21-15">
          <mxGeometry x="45" y="380" width="10" height="40" as="geometry" />
        </mxCell>
        <mxCell id="nNlxoumCLB-s76sOJI21-37" value="" style="html=1;points=[];perimeter=orthogonalPerimeter;" vertex="1" parent="nNlxoumCLB-s76sOJI21-15">
          <mxGeometry x="45" y="440" width="10" height="40" as="geometry" />
        </mxCell>
        <mxCell id="nNlxoumCLB-s76sOJI21-44" value="" style="html=1;points=[];perimeter=orthogonalPerimeter;" vertex="1" parent="nNlxoumCLB-s76sOJI21-15">
          <mxGeometry x="44" y="160" width="10" height="40" as="geometry" />
        </mxCell>
        <mxCell id="nNlxoumCLB-s76sOJI21-20" value="ats-mds" style="shape=umlLifeline;perimeter=lifelinePerimeter;whiteSpace=wrap;html=1;container=1;collapsible=0;recursiveResize=0;outlineConnect=0;" vertex="1" parent="1">
          <mxGeometry x="480" y="40" width="100" height="560" as="geometry" />
        </mxCell>
        <mxCell id="nNlxoumCLB-s76sOJI21-22" value="" style="html=1;points=[];perimeter=orthogonalPerimeter;" vertex="1" parent="nNlxoumCLB-s76sOJI21-20">
          <mxGeometry x="45" y="260" width="10" height="40" as="geometry" />
        </mxCell>
        <mxCell id="nNlxoumCLB-s76sOJI21-23" value="消费消息" style="html=1;verticalAlign=bottom;endArrow=block;entryX=0;entryY=0;" edge="1" target="nNlxoumCLB-s76sOJI21-22" parent="1" source="nNlxoumCLB-s76sOJI21-15">
          <mxGeometry relative="1" as="geometry">
            <mxPoint x="455" y="300" as="sourcePoint" />
          </mxGeometry>
        </mxCell>
        <mxCell id="nNlxoumCLB-s76sOJI21-25" value="ats-admin" style="shape=umlLifeline;perimeter=lifelinePerimeter;whiteSpace=wrap;html=1;container=1;collapsible=0;recursiveResize=0;outlineConnect=0;" vertex="1" parent="1">
          <mxGeometry x="600" y="40" width="100" height="560" as="geometry" />
        </mxCell>
        <mxCell id="nNlxoumCLB-s76sOJI21-26" value="" style="html=1;points=[];perimeter=orthogonalPerimeter;" vertex="1" parent="nNlxoumCLB-s76sOJI21-25">
          <mxGeometry x="45" y="300" width="10" height="40" as="geometry" />
        </mxCell>
        <mxCell id="nNlxoumCLB-s76sOJI21-27" value="feign" style="html=1;verticalAlign=bottom;endArrow=block;entryX=0;entryY=0;" edge="1" target="nNlxoumCLB-s76sOJI21-26" parent="1" source="nNlxoumCLB-s76sOJI21-22">
          <mxGeometry relative="1" as="geometry">
            <mxPoint x="575" y="320" as="sourcePoint" />
          </mxGeometry>
        </mxCell>
        <mxCell id="nNlxoumCLB-s76sOJI21-29" value="bd-admin" style="shape=umlLifeline;perimeter=lifelinePerimeter;whiteSpace=wrap;html=1;container=1;collapsible=0;recursiveResize=0;outlineConnect=0;" vertex="1" parent="1">
          <mxGeometry x="720" y="40" width="100" height="560" as="geometry" />
        </mxCell>
        <mxCell id="nNlxoumCLB-s76sOJI21-30" value="" style="html=1;points=[];perimeter=orthogonalPerimeter;" vertex="1" parent="nNlxoumCLB-s76sOJI21-29">
          <mxGeometry x="45" y="340" width="10" height="40" as="geometry" />
        </mxCell>
        <mxCell id="nNlxoumCLB-s76sOJI21-31" value="callback: &lt;br&gt;marketTrade" style="html=1;verticalAlign=bottom;endArrow=block;entryX=0;entryY=0;" edge="1" target="nNlxoumCLB-s76sOJI21-30" parent="1" source="nNlxoumCLB-s76sOJI21-25">
          <mxGeometry relative="1" as="geometry">
            <mxPoint x="695" y="340" as="sourcePoint" />
          </mxGeometry>
        </mxCell>
        <mxCell id="nNlxoumCLB-s76sOJI21-34" value="k_event_market_data_v2" style="html=1;verticalAlign=bottom;endArrow=block;entryX=1;entryY=0;" edge="1" target="nNlxoumCLB-s76sOJI21-33" parent="1" source="nNlxoumCLB-s76sOJI21-29">
          <mxGeometry relative="1" as="geometry">
            <mxPoint x="475" y="420" as="sourcePoint" />
          </mxGeometry>
        </mxCell>
        <mxCell id="nNlxoumCLB-s76sOJI21-36" value="bd-apigw" style="shape=umlLifeline;perimeter=lifelinePerimeter;whiteSpace=wrap;html=1;container=1;collapsible=0;recursiveResize=0;outlineConnect=0;" vertex="1" parent="1">
          <mxGeometry x="840" y="40" width="100" height="560" as="geometry" />
        </mxCell>
        <mxCell id="nNlxoumCLB-s76sOJI21-38" value="" style="html=1;points=[];perimeter=orthogonalPerimeter;" vertex="1" parent="nNlxoumCLB-s76sOJI21-36">
          <mxGeometry x="45" y="480" width="10" height="40" as="geometry" />
        </mxCell>
        <mxCell id="nNlxoumCLB-s76sOJI21-39" value="消费消息" style="html=1;verticalAlign=bottom;endArrow=block;entryX=0;entryY=0;" edge="1" target="nNlxoumCLB-s76sOJI21-38" parent="1" source="nNlxoumCLB-s76sOJI21-15">
          <mxGeometry relative="1" as="geometry">
            <mxPoint x="815" y="520" as="sourcePoint" />
          </mxGeometry>
        </mxCell>
        <mxCell id="nNlxoumCLB-s76sOJI21-40" value="websocket: type: market_trade" style="html=1;verticalAlign=bottom;endArrow=open;dashed=1;endSize=8;exitX=0;exitY=0.95;" edge="1" source="nNlxoumCLB-s76sOJI21-38" parent="1" target="nNlxoumCLB-s76sOJI21-1">
          <mxGeometry relative="1" as="geometry">
            <mxPoint x="310" y="560" as="targetPoint" />
          </mxGeometry>
        </mxCell>
        <mxCell id="nNlxoumCLB-s76sOJI21-45" value="k_event_ats_&lt;br&gt;martket_&lt;br&gt;trade_rtn_v2" style="html=1;verticalAlign=bottom;endArrow=block;entryX=0;entryY=0;" edge="1" target="nNlxoumCLB-s76sOJI21-44" parent="1" source="nNlxoumCLB-s76sOJI21-3">
          <mxGeometry relative="1" as="geometry">
            <mxPoint x="334" y="200" as="sourcePoint" />
          </mxGeometry>
        </mxCell>
      </root>
    </mxGraphModel>
  </diagram>
</mxfile>
